<svg xmlns="http://www.w3.org/2000/svg" width="17" height="16"><path fill="#fff" d="M5.733 0h4.102v.085c0 .444-.823.528-1.386.602-.19.025-.572.065-.68.118 1.038.535 1.207 1.377 1.207 2.633 0 1.427-.58 2.182-1.194 2.713-.38.328-.68.587-.68.932 0 .338.411.687.887 1.089.78.662 1.846 1.566 1.846 3.086 0 1.573-.7 2.699-2.081 3.346-1.065.5-2.211.554-2.655.554-.084 0-.133-.002-.14-.002h-.086c-.691 0-4.136-.154-4.136-3.182 0-2.977 3.75-3.21 4.9-3.21h.03c-.663-.854-.526-1.718-.526-1.718a3.8 3.8 0 01-.248.007c-.433 0-1.268-.066-1.986-.513-.877-.546-1.322-1.474-1.322-2.76C1.585.146 5.692 0 5.733 0zm-.14 9.54c-.093 0-.184.005-.277.01-.785.056-1.507.34-2.033.8-.518.452-.783 1.023-.745 1.604.079 1.21 1.426 1.921 3.063 1.806 1.61-.113 2.684-1.007 2.606-2.219-.075-1.14-1.1-2-2.615-2zm-.644-8.466c-.116 0-.232.015-.343.045-.464.126-.832.501-1.037 1.056-.21.563-.224 1.15-.042 1.82.326 1.193 1.205 2.06 2.092 2.06.116 0 .232-.016.343-.046.968-.263 1.576-1.692 1.174-3.059-.427-1.448-1.116-1.876-2.187-1.876zm11.775 4.853v1.636h-2.677v2.584h-1.695V7.563H9.676V5.927h2.676V3.343h1.695v2.584z"/></svg>